<?xml version="1.0" encoding="UTF-8"?>
<mxfile host="ac.draw.io" modified="2023-04-04T12:11:40.446Z" agent="Mozilla/5.0 (Macintosh; Intel Mac OS X 10_15_7) AppleWebKit/537.36 (KHTML, like Gecko) Chrome/111.0.0.0 Safari/537.36" etag="aokbvx4xBl230Km7edUw" version="21.1.2" type="embed">
  <diagram id="mvRfGreNyMZ081jEFbUN" name="Page-1">
    <mxGraphModel dx="1434" dy="805" grid="1" gridSize="10" guides="1" tooltips="1" connect="1" arrows="1" fold="1" page="1" pageScale="1" pageWidth="827" pageHeight="1169" math="0" shadow="0">
      <root>
        <mxCell id="0" />
        <mxCell id="1" parent="0" />
        <mxCell id="w7PaGOnTu4NmDSJ7aBcq-1" value="&lt;font style=&quot;font-size: 22px;&quot;&gt;Kontent.ai&lt;/font&gt;" style="verticalLabelPosition=middle;verticalAlign=middle;html=1;shape=mxgraph.basic.three_corner_round_rect;dx=12;whiteSpace=wrap;rounded=1;glass=0;flipV=0;strokeWidth=2;perimeterSpacing=0;strokeColor=none;fillColor=#3dcca8;flipH=1;labelPosition=center;align=center;fontFamily=Work Sans;fontSource=https%3A%2F%2Ffonts.googleapis.com%2Fcss%3Ffamily%3DWork%2BSans;spacing=20;overflow=hidden;" parent="1" vertex="1">
          <mxGeometry x="280" y="60" width="160" height="70" as="geometry" />
        </mxCell>
        <mxCell id="w7PaGOnTu4NmDSJ7aBcq-2" value="Integration" style="verticalLabelPosition=middle;verticalAlign=middle;html=1;shape=mxgraph.basic.three_corner_round_rect;dx=12;whiteSpace=wrap;rounded=1;glass=0;flipV=0;strokeWidth=2;perimeterSpacing=0;strokeColor=#3DCCA8;fillColor=none;flipH=1;labelPosition=center;align=center;fontColor=#231F20;fontSize=22;fontFamily=Work Sans;fontSource=https%3A%2F%2Ffonts.googleapis.com%2Fcss%3Ffamily%3DWork%2BSans;spacing=20;overflow=hidden;" parent="1" vertex="1">
          <mxGeometry x="155" y="200" width="160" height="70" as="geometry" />
        </mxCell>
        <mxCell id="w7PaGOnTu4NmDSJ7aBcq-3" value="Search provider" style="verticalLabelPosition=middle;verticalAlign=middle;html=1;shape=mxgraph.basic.three_corner_round_rect;dx=12;whiteSpace=wrap;rounded=1;glass=0;flipV=0;strokeWidth=2;perimeterSpacing=0;strokeColor=#6956cc;fillColor=none;flipH=1;labelPosition=center;align=center;fontColor=#231F20;fontSize=22;fontFamily=Work Sans;fontSource=https%3A%2F%2Ffonts.googleapis.com%2Fcss%3Ffamily%3DWork%2BSans;spacing=20;overflow=hidden;" parent="1" vertex="1">
          <mxGeometry x="110" y="340" width="250" height="70" as="geometry" />
        </mxCell>
        <mxCell id="w7PaGOnTu4NmDSJ7aBcq-4" value="" style="endArrow=open;endFill=1;endSize=12;html=1;rounded=1;fontFamily=Work Sans;fontSource=https%3A%2F%2Ffonts.googleapis.com%2Fcss%3Ffamily%3DWork%2BSans;fontSize=22;fontColor=#231F20;strokeWidth=2;arcSize=40;entryX=0.5;entryY=0;entryDx=0;entryDy=0;entryPerimeter=0;" parent="1" target="w7PaGOnTu4NmDSJ7aBcq-2" edge="1">
          <mxGeometry width="160" relative="1" as="geometry">
            <mxPoint x="280" y="100" as="sourcePoint" />
            <mxPoint x="660" y="170" as="targetPoint" />
            <Array as="points">
              <mxPoint x="235" y="100" />
            </Array>
          </mxGeometry>
        </mxCell>
        <mxCell id="w7PaGOnTu4NmDSJ7aBcq-5" value="content changed" style="edgeLabel;html=1;align=center;verticalAlign=middle;resizable=0;points=[];fontSize=22;fontFamily=Work Sans;fontColor=#231F20;" parent="w7PaGOnTu4NmDSJ7aBcq-4" connectable="0" vertex="1">
          <mxGeometry x="0.3" y="3" relative="1" as="geometry">
            <mxPoint x="-3" y="1" as="offset" />
          </mxGeometry>
        </mxCell>
        <mxCell id="w7PaGOnTu4NmDSJ7aBcq-6" value="" style="endArrow=open;endFill=1;endSize=12;html=1;rounded=1;fontFamily=Work Sans;fontSource=https%3A%2F%2Ffonts.googleapis.com%2Fcss%3Ffamily%3DWork%2BSans;fontSize=22;fontColor=#231F20;strokeWidth=2;arcSize=40;exitX=0.5;exitY=1;exitDx=0;exitDy=0;exitPerimeter=0;entryX=0.5;entryY=0;entryDx=0;entryDy=0;entryPerimeter=0;" parent="1" source="w7PaGOnTu4NmDSJ7aBcq-2" target="w7PaGOnTu4NmDSJ7aBcq-3" edge="1">
          <mxGeometry width="160" relative="1" as="geometry">
            <mxPoint x="205" y="360" as="sourcePoint" />
            <mxPoint x="365" y="360" as="targetPoint" />
          </mxGeometry>
        </mxCell>
        <mxCell id="w7PaGOnTu4NmDSJ7aBcq-7" value="update search index" style="edgeLabel;html=1;align=center;verticalAlign=middle;resizable=0;points=[];fontSize=22;fontFamily=Work Sans;fontColor=#231F20;" parent="w7PaGOnTu4NmDSJ7aBcq-6" connectable="0" vertex="1">
          <mxGeometry x="0.3" y="3" relative="1" as="geometry">
            <mxPoint x="-3" y="-17" as="offset" />
          </mxGeometry>
        </mxCell>
        <mxCell id="ukWcUFDg1TyrEgQXVyZ8-1" value="App" style="verticalLabelPosition=middle;verticalAlign=middle;html=1;shape=mxgraph.basic.three_corner_round_rect;dx=12;whiteSpace=wrap;rounded=1;glass=0;flipV=0;strokeWidth=2;perimeterSpacing=0;strokeColor=#231f20;fillColor=none;flipH=1;labelPosition=center;align=center;fontColor=#231f20;fontSize=22;fontFamily=Work Sans;fontSource=https%3A%2F%2Ffonts.googleapis.com%2Fcss%3Ffamily%3DWork%2BSans;spacingLeft=0;spacingRight=0;labelPadding=0;noLabel=0;overflow=hidden;spacing=20;" parent="1" vertex="1">
          <mxGeometry x="280" y="500" width="160" height="70" as="geometry" />
        </mxCell>
        <mxCell id="ukWcUFDg1TyrEgQXVyZ8-2" value="" style="endArrow=open;endFill=1;endSize=12;html=1;rounded=1;fontFamily=Work Sans;fontSource=https%3A%2F%2Ffonts.googleapis.com%2Fcss%3Ffamily%3DWork%2BSans;fontSize=22;fontColor=#231F20;strokeWidth=2;startSize=6;sourcePerimeterSpacing=0;jumpStyle=none;arcSize=40;exitX=1;exitY=0.5;exitDx=0;exitDy=0;exitPerimeter=0;entryX=0.5;entryY=1;entryDx=0;entryDy=0;entryPerimeter=0;" parent="1" source="ukWcUFDg1TyrEgQXVyZ8-1" target="w7PaGOnTu4NmDSJ7aBcq-3" edge="1">
          <mxGeometry width="160" relative="1" as="geometry">
            <mxPoint x="330" y="630" as="sourcePoint" />
            <mxPoint x="490" y="630" as="targetPoint" />
            <Array as="points">
              <mxPoint x="235" y="535" />
            </Array>
          </mxGeometry>
        </mxCell>
        <mxCell id="ukWcUFDg1TyrEgQXVyZ8-3" value="search content" style="edgeLabel;html=1;align=center;verticalAlign=middle;resizable=0;points=[];fontSize=22;fontFamily=Work Sans;fontColor=#231F20;" parent="ukWcUFDg1TyrEgQXVyZ8-2" connectable="0" vertex="1">
          <mxGeometry x="0.3" y="3" relative="1" as="geometry">
            <mxPoint x="-2" y="-9" as="offset" />
          </mxGeometry>
        </mxCell>
        <mxCell id="ukWcUFDg1TyrEgQXVyZ8-4" value="" style="endArrow=open;endFill=1;endSize=12;html=1;rounded=1;fontFamily=Work Sans;fontSource=https%3A%2F%2Ffonts.googleapis.com%2Fcss%3Ffamily%3DWork%2BSans;fontSize=22;fontColor=#231F20;strokeWidth=2;startSize=6;sourcePerimeterSpacing=0;jumpStyle=none;arcSize=40;exitX=0.194;exitY=-0.014;exitDx=0;exitDy=0;exitPerimeter=0;" parent="1" source="ukWcUFDg1TyrEgQXVyZ8-1" edge="1">
          <mxGeometry width="160" relative="1" as="geometry">
            <mxPoint x="410" y="490" as="sourcePoint" />
            <mxPoint x="410" y="130" as="targetPoint" />
            <Array as="points" />
          </mxGeometry>
        </mxCell>
        <mxCell id="ukWcUFDg1TyrEgQXVyZ8-5" value="get content" style="edgeLabel;html=1;align=center;verticalAlign=middle;resizable=0;points=[];fontSize=22;fontFamily=Work Sans;fontColor=#231F20;" parent="ukWcUFDg1TyrEgQXVyZ8-4" connectable="0" vertex="1">
          <mxGeometry x="0.3" y="3" relative="1" as="geometry">
            <mxPoint x="8" y="-23" as="offset" />
          </mxGeometry>
        </mxCell>
      </root>
    </mxGraphModel>
  </diagram>
</mxfile>
